<svg width="20" height="20" viewBox="0 0 20 20" fill="none" xmlns="http://www.w3.org/2000/svg">
<title>Click in order to get your current geolocation.</title>
<path d="M10 0C5.77669 0 2.34044 3.43605 2.34044 7.65957C2.34044 11.7728 9.38583 19.5331 9.68587 19.8614C9.76649 19.9497 9.88036 20 10 20C10.1197 20 10.2336 19.9497 10.3142 19.8614C10.6142 19.5331 17.6596 11.7728 17.6596 7.65957C17.6596 3.43605 14.2233 0 10 0ZM10 18.9347C8.622 17.3683 3.19149 10.9824 3.19149 7.65961C3.19149 3.90543 6.24587 0.851094 10 0.851094C13.7542 0.851094 16.8085 3.90543 16.8085 7.65961C16.8085 10.9813 11.3776 17.3685 10 18.9347Z" fill="#AAAAAA"/>
<path d="M10 3.4043C7.41898 3.4043 5.31914 5.5041 5.31914 8.08516C5.31914 10.6662 7.41894 12.766 10 12.766C12.5811 12.766 14.6809 10.6662 14.6809 8.08516C14.6809 5.5041 12.5811 3.4043 10 3.4043ZM10 11.9149C7.88812 11.9149 6.17019 10.1968 6.17019 8.08512C6.17019 5.97344 7.88812 4.25531 10 4.25531C12.1119 4.25531 13.8298 5.97344 13.8298 8.08512C13.8298 10.1968 12.1119 11.9149 10 11.9149Z" fill="#AAAAAA"/>
</svg>
