<svg width="30" height="30" viewBox="0 0 30 30" fill="none" xmlns="http://www.w3.org/2000/svg">
<path d="M18.0645 29.7949C17.918 29.8008 17.8242 29.8125 17.7305 29.8125C15.7266 29.8125 13.7285 29.8067 11.7246 29.8184C11.4434 29.8184 11.3672 29.7422 11.3672 29.461C11.373 24.7969 11.373 20.127 11.373 15.4629C11.373 15.3399 11.373 15.2168 11.373 15.0586C10.2832 15.0586 9.22266 15.0586 8.14453 15.0586C8.14453 13.3945 8.14453 11.7598 8.14453 10.0781C8.25586 10.0781 8.36133 10.0781 8.46094 10.0781C9.33984 10.0781 10.2187 10.0723 11.0977 10.084C11.3203 10.084 11.3789 10.0195 11.3789 9.80275C11.3672 8.49611 11.3672 7.18361 11.3789 5.87697C11.3848 4.96291 11.5313 4.07228 11.9531 3.24611C12.5566 2.08009 13.5117 1.32423 14.7188 0.855483C15.7031 0.468765 16.7402 0.32814 17.7832 0.310562C19.4824 0.287124 21.1816 0.298843 22.8809 0.292983C23.0391 0.292983 23.168 0.287124 23.168 0.50978C23.1621 2.12111 23.1621 3.73244 23.1621 5.34376C23.1621 5.36134 23.1563 5.37892 23.1328 5.45509C23.0332 5.45509 22.9219 5.45509 22.8105 5.45509C21.7559 5.45509 20.7012 5.44923 19.6465 5.45509C19.0371 5.45509 18.5449 5.70119 18.2344 6.23439C18.1406 6.39259 18.082 6.59767 18.082 6.78517C18.0645 7.78126 18.082 8.77736 18.0703 9.77345C18.0703 10.0078 18.1406 10.0723 18.3691 10.0723C19.834 10.0606 21.2988 10.0664 22.7637 10.0664C22.8809 10.0664 22.9922 10.0664 23.1914 10.0664C22.9863 11.7422 22.7871 13.3828 22.582 15.041C21.0586 15.041 19.5762 15.041 18.0645 15.041C18.0645 19.9688 18.0645 24.8672 18.0645 29.7949Z" fill="white"/>
</svg>
