<svg width="26" height="26" viewBox="0 0 26 26" fill="none" xmlns="http://www.w3.org/2000/svg">
<g clip-path="url(#clip0)">
<path d="M26.063 5.10666C25.1022 5.53322 24.0723 5.81963 22.9897 5.94963C24.0947 5.28744 24.9437 4.23932 25.3419 2.99213C24.31 3.60353 23.1623 4.04838 21.9456 4.28807C20.9706 3.24807 19.5812 2.6001 18.0436 2.6001C15.0902 2.6001 12.6953 4.99291 12.6953 7.94635C12.6953 8.36478 12.7441 8.77307 12.8355 9.1651C8.39109 8.94166 4.4525 6.81291 1.81391 3.57713C1.35281 4.36932 1.09078 5.28744 1.09078 6.2665C1.09078 8.12103 2.03328 9.75822 3.46937 10.719C2.59187 10.6906 1.76719 10.4488 1.04609 10.0487C1.04609 10.071 1.04609 10.0934 1.04609 10.1157C1.04609 12.7076 2.89047 14.8668 5.33406 15.3604C4.88719 15.4823 4.41391 15.5473 3.92641 15.5473C3.58109 15.5473 3.24594 15.5148 2.91891 15.4498C3.60141 17.5724 5.57578 19.1223 7.91375 19.1649C6.08562 20.599 3.78016 21.4521 1.27359 21.4521C0.840938 21.4521 0.416407 21.4278 0 21.377C2.36437 22.8963 5.17562 23.7799 8.19609 23.7799C18.0314 23.7799 23.4102 15.6326 23.4102 8.56791C23.4102 8.33635 23.4041 8.10275 23.3959 7.87525C24.44 7.12166 25.3459 6.17916 26.063 5.10666Z" fill="white"/>
</g>
<defs>
<clipPath id="clip0">
<rect width="26" height="26" fill="white"/>
</clipPath>
</defs>
</svg>
