<svg width="30" height="30" viewBox="0 0 30 30" fill="none" xmlns="http://www.w3.org/2000/svg">
<path d="M27.6822 3.93149C27.2322 3.54989 26.5254 3.49529 25.7946 3.78869H25.7934C25.0248 4.09709 4.0368 13.0995 3.1824 13.4673C3.027 13.5213 1.6698 14.0277 1.8096 15.1557C1.9344 16.1727 3.0252 16.5939 3.1584 16.6425L8.4942 18.4695C8.8482 19.6479 10.1532 23.9955 10.4418 24.9243C10.6218 25.5033 10.9152 26.2641 11.4294 26.4207C11.8806 26.5947 12.3294 26.4357 12.6198 26.2077L15.882 23.1819L21.1482 27.2889L21.2736 27.3639C21.6312 27.5223 21.9738 27.6015 22.3008 27.6015C22.5534 27.6015 22.7958 27.5541 23.0274 27.4593C23.8164 27.1353 24.132 26.3835 24.165 26.2983L28.0986 5.85209C28.3386 4.76009 28.005 4.20449 27.6822 3.93149ZM13.2 19.2003L11.4 24.0003L9.6 18.0003L23.4 7.80029L13.2 19.2003Z" fill="white"/>
</svg>
