<svg width="54" height="60" viewBox="0 0 54 60" fill="none" xmlns="http://www.w3.org/2000/svg">
    <path d="M30.2891 9H29.3467L25.7676 3.52148V9H24.8252V1.89062H25.7676L29.3564 7.39355V1.89062H30.2891V9Z" fill="#7F7F7F"/>
    <path d="M26.9199 51.8311C26.1159 51.5999 25.5299 51.3167 25.1621 50.9814C24.7975 50.6429 24.6152 50.2262 24.6152 49.7314C24.6152 49.1715 24.8382 48.7093 25.2842 48.3447C25.7334 47.9769 26.3161 47.793 27.0322 47.793C27.5205 47.793 27.9551 47.8874 28.3359 48.0762C28.7201 48.265 29.0163 48.5254 29.2246 48.8574C29.4362 49.1895 29.542 49.5524 29.542 49.9463H28.5996C28.5996 49.5166 28.4629 49.1797 28.1895 48.9355C27.916 48.6882 27.5303 48.5645 27.0322 48.5645C26.57 48.5645 26.2087 48.667 25.9482 48.8721C25.6911 49.0739 25.5625 49.3555 25.5625 49.7168C25.5625 50.0065 25.6846 50.2523 25.9287 50.4541C26.1761 50.6527 26.5944 50.835 27.1836 51.001C27.776 51.167 28.2383 51.3509 28.5703 51.5527C28.9056 51.7513 29.153 51.984 29.3125 52.251C29.4753 52.5179 29.5566 52.832 29.5566 53.1934C29.5566 53.7695 29.332 54.2318 28.8828 54.5801C28.4336 54.9251 27.833 55.0977 27.0811 55.0977C26.5928 55.0977 26.137 55.0049 25.7139 54.8193C25.2907 54.6305 24.9635 54.3734 24.7324 54.0479C24.5046 53.7223 24.3906 53.3529 24.3906 52.9395H25.333C25.333 53.3691 25.4909 53.7093 25.8066 53.96C26.1257 54.2074 26.5505 54.3311 27.0811 54.3311C27.5758 54.3311 27.9551 54.2301 28.2188 54.0283C28.4824 53.8265 28.6143 53.5514 28.6143 53.2031C28.6143 52.8548 28.4922 52.5863 28.248 52.3975C28.0039 52.2054 27.5612 52.0166 26.9199 51.8311Z" fill="#7F7F7F"/>
    <path d="M2.3584 30.7588L2.49512 31.6963L2.69531 30.8516L4.10156 25.8906H4.89258L6.26465 30.8516L6.45996 31.7109L6.61133 30.7539L7.71484 25.8906H8.65723L6.93359 33H6.0791L4.61426 27.8193L4.50195 27.2773L4.38965 27.8193L2.87109 33H2.0166L0.297852 25.8906H1.23535L2.3584 30.7588Z" fill="#7F7F7F"/>
    <path d="M50.8438 29.7139H47.7627V32.2334H51.3418V33H46.8252V25.8906H51.293V26.6621H47.7627V28.9473H50.8438V29.7139Z" fill="#7F7F7F"/>
</svg>
