<svg xmlns="http://www.w3.org/2000/svg" viewBox="0 0 392.198 392.198"><path d="M265.177 212.301c39.698-2.295 73.74 28.027 76.035 67.725 2.295 39.698-28.027 73.74-67.725 76.035-2.768.16-5.542.16-8.31 0h-209C25.139 356.048-.013 330.876 0 299.838c.013-31.02 25.157-56.164 56.177-56.177h4c-6.627-47.839 26.781-91.993 74.62-98.62 47.839-6.627 91.993 26.781 98.62 74.62a71.564 71.564 0 0131.76-7.36z" fill="#50d1ef"/><path d="M221.057 72.061a7.28 7.28 0 11-14.08 3.64l-8-30.24a7.28 7.28 0 1114.08-3.64l8 30.24zm-53.8 26.32a7.297 7.297 0 01-.04 10.32 7.297 7.297 0 01-10.32-.04l-22-22.24a7.28 7.28 0 1110.359-10.12l22.001 22.08zm185.48 124.72a7.3 7.3 0 114-14.04l30.16 8.24a7.3 7.3 0 11-4 14.04l-30.16-8.24zm4-59.76a7.28 7.28 0 01-3.64-14.08l30.24-8a7.28 7.28 0 013.64 14.08l-30.24 8zm-26.24-53.76a7.311 7.311 0 11-10.32-10.36l22.24-22a7.297 7.297 0 0110.32.04 7.297 7.297 0 01-.04 10.32l-22.2 22zm-49.72-33.28a7.3 7.3 0 11-14.04-4l8.24-30.16a7.3 7.3 0 1114.04 4l-8.24 30.16zm-8 36c39.113 15.593 58.179 59.94 42.587 99.053a76.174 76.174 0 01-7.987 14.947 72 72 0 00-74.16-6.08c-4.736-32.194-26.934-59.107-57.64-69.88 17.102-36.471 59.689-53.263 97.08-38.28l.12.24z" fill="#ffed00"/></svg>