<svg width="23" height="23" viewBox="0 0 23 23" fill="none" xmlns="http://www.w3.org/2000/svg">
<path d="M15.1433 8.32383C15.1433 6.32355 13.5089 4.6963 11.5 4.6963C9.49109 4.6963 7.85665 6.32355 7.85665 8.32383C7.85665 10.3241 9.49109 11.9514 11.5 11.9514C13.5089 11.9514 15.1433 10.3241 15.1433 8.32383Z" fill="white"/>
<path d="M11.4982 22.9986L12.9749 21.0669C14.5162 19.0264 19.545 12.0739 19.545 8.27281C19.5453 3.32529 16.3124 0.00143433 11.5 0.00143433C6.6876 0.00143433 3.45467 3.32529 3.45467 8.27317C3.45467 12.3665 9.35992 20.1922 10.0316 21.0687L11.4982 22.9986ZM6.41915 8.32384C6.41915 5.53114 8.69831 3.25881 11.5 3.25881C14.3017 3.25881 16.5808 5.53114 16.5808 8.32384C16.5808 11.1165 14.3017 13.3889 11.5 13.3889C8.69831 13.3889 6.41915 11.1169 6.41915 8.32384Z" fill="white"/>
</svg>
