<svg height="640" viewBox="-7 0 480 480.008" width="640" xmlns="http://www.w3.org/2000/svg"><path d="M460.238 288.129a11.045 11.045 0 00-9-.922l-66.402 22.05-40.473-23.37 45.84-16.145a11.004 11.004 0 005.899-4.894l.437-.758c3.05-5.281 1.242-12.035-4.039-15.082a11.057 11.057 0 00-9-.918l-66.398 22.047-36.215-20.899V230.77l36.207-20.907 66.398 22.047c2.992.992 6.274.664 9-.918 5.281-3.047 7.09-9.8 4.04-15.082l-.43-.765a11.096 11.096 0 00-5.899-4.899l-45.84-16.14 40.473-23.372 66.402 22.051c2.992.992 6.27.664 9-.922 5.278-3.047 7.086-9.8 4.04-15.078l-.442-.762a11.064 11.064 0 00-5.895-4.894l-45.84-16.145 22.766-13.144c7.656-4.414 10.274-14.207 5.86-21.856-4.418-7.656-14.204-10.273-21.86-5.855l-22.765 13.144 8.941-47.77a11.038 11.038 0 00-1.285-7.55l-.442-.762c-3.046-5.28-9.8-7.086-15.078-4.039a11.055 11.055 0 00-5.297 7.336l-14.113 68.528-40.473 23.367 8.946-47.766a11.055 11.055 0 00-1.29-7.555l-.437-.757c-3.05-5.282-9.8-7.09-15.082-4.04a11.068 11.068 0 00-5.297 7.337l-14.11 68.527-25.952 14.984L248.887 184v-32l52.293-46.48a11.072 11.072 0 003.707-8.254c0-6.098-4.946-11.043-11.043-11.043h-.871a11.06 11.06 0 00-7.184 2.656l-36.902 31.633V73.785l52.293-46.48a11.097 11.097 0 003.707-8.266C304.887 12.945 299.94 8 293.844 8h-.871a11.06 11.06 0 00-7.184 2.656L248.887 42.29V16c0-8.84-7.16-16-16-16-8.844 0-16 7.16-16 16v26.29l-36.899-31.626a11.06 11.06 0 00-7.183-2.656h-.88c-6.097 0-11.038 4.945-11.038 11.039 0 3.152 1.351 6.16 3.703 8.258l52.297 46.48v46.727l-36.899-31.625a11.06 11.06 0 00-7.183-2.657h-.88c-6.097 0-11.038 4.946-11.038 11.043 0 3.153 1.351 6.16 3.703 8.254L216.887 152v32l-26.258 13.129-25.953-14.984-14.11-68.528a11.018 11.018 0 00-5.296-7.336c-5.282-3.05-12.032-1.242-15.083 4.04l-.437.757a11.011 11.011 0 00-1.29 7.555l8.946 47.765-40.472-23.367L82.82 74.504a11.006 11.006 0 00-5.297-7.336c-5.277-3.047-12.03-1.238-15.078 4.039l-.441.762a10.999 10.999 0 00-1.285 7.55l8.941 47.77-22.765-13.144c-7.657-4.418-17.442-1.801-21.86 5.855-4.414 7.656-1.797 17.441 5.86 21.855L53.66 155 7.82 171.145a11.013 11.013 0 00-5.894 4.894l-.442.762c-3.047 5.277-1.238 12.031 4.04 15.078a11.045 11.045 0 009 .922l66.402-22.047 40.472 23.367-45.84 16.145a11.004 11.004 0 00-5.898 4.894l-.437.762c-3.051 5.277-1.243 12.031 4.039 15.078a11.073 11.073 0 009 .922l66.398-22.05 36.227 20.898v18.468l-36.211 20.907-66.399-22.047a11.027 11.027 0 00-9 .918c-5.28 3.046-7.09 9.8-4.039 15.082l.438.757a11.096 11.096 0 005.898 4.899l45.84 16.14-40.473 23.372-66.402-22.051a11.014 11.014 0 00-9 .922c-5.277 3.047-7.086 9.8-4.039 15.078l.441.762a11.064 11.064 0 005.895 4.894l45.84 16.145L30.91 338.16c-7.656 4.414-10.273 14.2-5.855 21.856 4.414 7.656 14.199 10.273 21.855 5.855l22.766-13.144-8.942 47.77a11.038 11.038 0 001.286 7.55l.44.762c3.048 5.28 9.802 7.086 15.08 4.039a11.055 11.055 0 005.296-7.336l14.113-68.528 40.473-23.367-8.945 47.766a11.055 11.055 0 001.289 7.554l.437.758c3.05 5.282 9.8 7.09 15.082 4.04a11.068 11.068 0 005.297-7.337l14.11-68.527 25.953-14.984L216.887 296v32l-52.297 46.48a11.087 11.087 0 00-3.703 8.254c0 6.098 4.941 11.043 11.039 11.043h.87a11.06 11.06 0 007.184-2.656l36.907-31.625v46.727l-52.297 46.48a11.077 11.077 0 00-3.703 8.258c0 6.094 4.941 11.039 11.039 11.039h.87a11.06 11.06 0 007.184-2.656l36.907-31.625v26.289c0 8.84 7.156 16 16 16 8.84 0 16-7.16 16-16v-26.29l36.894 31.626c2 1.71 4.551 2.656 7.184 2.656h.87c6.099 0 11.04-4.945 11.04-11.04 0-3.151-1.352-6.16-3.703-8.257l-52.285-46.48v-46.727l36.894 31.625c2 1.711 4.551 2.656 7.184 2.656h.87c6.099 0 11.04-4.945 11.04-11.043 0-3.148-1.352-6.16-3.703-8.254L248.887 328v-32l26.254-13.129 25.953 14.984 14.11 68.528a11.018 11.018 0 005.296 7.336c5.281 3.05 12.031 1.242 15.082-4.04l.438-.757a11.011 11.011 0 001.289-7.555l-8.946-47.765 40.473 23.367 14.113 68.527a11.006 11.006 0 005.297 7.336c5.277 3.047 12.031 1.238 15.078-4.039l.442-.762a11.022 11.022 0 001.289-7.55l-8.946-47.77 22.766 13.144c7.656 4.418 17.441 1.793 21.86-5.855 4.413-7.656 1.796-17.441-5.86-21.855L412.109 325l45.84-16.145a11.013 11.013 0 005.895-4.894l.441-.762c3.047-5.27 1.238-12.023-4.047-15.07zM248.887 256l-16 8-16-8v-32l16-8 16 8zm0 0"/></svg>