<svg id="Layer_1" height="512" viewBox="0 0 128 128" width="512" xmlns="http://www.w3.org/2000/svg" data-name="Layer 1"><path d="m121.5 78.73a25.082 25.082 0 0 1 -25.08 25.08h-64.84a25.081 25.081 0 0 1 -2.56-50.03c-.02-.28-.02-.56-.02-.84a28.753 28.753 0 0 1 54.63-12.53 18.22 18.22 0 0 1 2.87-.22 18.762 18.762 0 0 1 18.36 14.92 25.078 25.078 0 0 1 16.64 23.62z" fill="#4e8ed5"/><g fill="#000"><path d="m67.833 102.06h-36.253a23.331 23.331 0 0 1 -2.38-46.539 1.75 1.75 0 0 0 1.569-1.866c-.017-.238-.016-.477-.016-.715 0-.621.021-1.25.064-1.868a1.75 1.75 0 0 0 -3.492-.239c-.032.468-.053.941-.064 1.414a26.832 26.832 0 0 0 4.319 53.313h36.253a1.75 1.75 0 0 0 0-3.5z"/><path d="m106.352 53.8a20.589 20.589 0 0 0 -19.852-15.36c-.634 0-1.258.028-1.869.083a30.693 30.693 0 0 0 -26.881-16.083 30.314 30.314 0 0 0 -24.15 11.87 1.75 1.75 0 1 0 2.77 2.14 26.839 26.839 0 0 1 21.38-10.51 27.16 27.16 0 0 1 24.3 15.233 1.746 1.746 0 0 0 1.852.965 16.507 16.507 0 0 1 2.594-.2 17.065 17.065 0 0 1 16.646 13.526 1.751 1.751 0 0 0 1.125 1.292 23.332 23.332 0 0 1 -7.852 45.3h-19.248a1.75 1.75 0 0 0 0 3.5h19.253a26.832 26.832 0 0 0 9.932-51.756z"/><path d="m29.94 45.412a1.747 1.747 0 0 0 2.217-1.1c.271-.8.583-1.6.928-2.375a1.75 1.75 0 1 0 -3.2-1.427c-.39.875-.743 1.778-1.048 2.685a1.75 1.75 0 0 0 1.103 2.217z"/><path d="m108.838 94.956a1.75 1.75 0 0 1 -1.141-3.078 17.305 17.305 0 0 0 2.643-23.463 1.75 1.75 0 1 1 2.813-2.082 20.806 20.806 0 0 1 -3.176 28.2 1.742 1.742 0 0 1 -1.139.423z"/></g></svg>