<svg id="Layer_1" height="512" viewBox="0 0 128 128" width="512" xmlns="http://www.w3.org/2000/svg" data-name="Layer 1"><path d="m24.192 81.548-17.692 39.808h115l-17.69-39.808z" fill="#1bce89"/><path d="m97.685 40.185a41.584 41.584 0 0 1 -2.564 12.9c-5.466 16.081-18.759 36.66-31.121 50.723-12.362-14.063-25.655-34.642-31.122-50.719a41.584 41.584 0 0 1 -2.564-12.9 33.685 33.685 0 0 1 67.371 0z" fill="#fb4a59"/><circle cx="64" cy="40.183" fill="#f2f2f2" r="16.842"/><g fill="#104889"><path d="m123.1 120.649-4.9-11.037a1.75 1.75 0 1 0 -3.2 1.422l3.811 8.576h-109.619l16.135-36.31h10.006a1.75 1.75 0 0 0 0-3.5h-11.143a1.75 1.75 0 0 0 -1.6 1.039l-17.69 39.81a1.75 1.75 0 0 0 1.6 2.461h115a1.75 1.75 0 0 0 1.6-2.461z"/><path d="m110.875 101.76 1.591 3.581a1.75 1.75 0 1 0 3.2-1.422l-1.591-3.581a1.75 1.75 0 1 0 -3.2 1.422z"/><path d="m33.441 54.746a1.75 1.75 0 0 0 1.094-2.22 39.812 39.812 0 0 1 -2.471-12.341 31.936 31.936 0 1 1 63.871 0 39.8 39.8 0 0 1 -2.471 12.34c-3.041 8.945-8.311 18.822-14.24 28.026-.013.019-.025.039-.037.058a194.627 194.627 0 0 1 -15.187 20.527c-10.146-11.854-19.971-26.923-25.891-39.768a1.75 1.75 0 0 0 -3.179 1.465c6.307 13.686 16.942 29.828 27.755 42.13a1.75 1.75 0 0 0 2.629 0 194.313 194.313 0 0 0 16.286-21.663h21.068l5.583 12.563a1.75 1.75 0 1 0 3.2-1.422l-6.044-13.6a1.75 1.75 0 0 0 -1.6-1.039h-19.976c5.388-8.672 10.107-17.802 12.947-26.151a43.164 43.164 0 0 0 2.657-13.466 35.436 35.436 0 1 0 -70.871 0 43.164 43.164 0 0 0 2.657 13.466 1.749 1.749 0 0 0 2.22 1.095z"/><path d="m57.875 26.385a1.75 1.75 0 1 0 -1.422-3.2 18.6 18.6 0 1 0 9.407-1.5 1.75 1.75 0 0 0 -.347 3.482 15.084 15.084 0 1 1 -7.639 1.219z"/><path d="m110.026 112.063a1.749 1.749 0 0 1 -1.6-1.039l-6.3-14.173a1.75 1.75 0 1 1 3.2-1.422l6.3 14.173a1.75 1.75 0 0 1 -1.6 2.461z"/></g></svg>