<svg id="Capa_1" enable-background="new 0 0 512 512" height="512" viewBox="0 0 512 512" width="512" xmlns="http://www.w3.org/2000/svg"><path d="m434.974 265.775c24.755 38.842 39.141 79.637 43 115.853.695 6.527-6.162 11.192-12.019 8.23-14.018-7.089-35.553-18.555-44.794-26.502l-22.203-145.022c12.957 13.648 24.983 30.129 36.016 47.441z" fill="#5d5360"/><path d="m77.026 265.775c-24.755 38.842-39.141 79.637-43 115.853-.695 6.527 6.162 11.192 12.019 8.23 14.018-7.089 35.553-18.555 44.794-26.502l22.12-144.897c-12.957 13.648-24.9 30.004-35.933 47.316z" fill="#4b3f4e"/><path d="m376.364 194.235c-16.535-14.636-22.564-37.522-16.753-58.826 3.846-14.099 4.875-29.358 2.402-45.179-7.121-45.548-43.886-81.843-89.13-88.931-1.664-.261-9.948.631-11.634.45-64.603-6.922-99.249 51.387-99.249 114.584 0 10.288 3.279 14.263 6 23.667 5.961 20.597-8.934 44.8-25 59-39.317 34.751-59.199 79.911-57 137 0 100.338 69.662 120.333 170 120.333 66.533 0 156.364-33.451 156.364-33.451 16.081-27.108 25.314-58.756 25.314-92.56-.001-54.169-23.708-102.801-61.314-136.087z" fill="#5d5360"/><path d="m294.792 70.229c-13.617-.582-25.701 6.166-32.632 16.627-2.979 4.495-9.343 4.495-12.321 0-6.931-10.46-19.015-17.209-32.632-16.627-21.309.911-36.778 20.841-35.365 42.123 2.57 38.717 34.789 69.326 74.157 69.326s71.587-30.609 74.157-69.326c1.414-21.282-14.055-41.212-35.364-42.123z" fill="#eceaec"/><g fill="#4b3f4e"><path d="m74.461 337.503c-.036-.942-.006-1.869-.028-2.808-.035-1.458-.11-2.905-.11-4.371z"/><path d="m272.882 1.306c-1.631-.254-3.372-.492-5.024-.669-64.604-6.923-119.213 43.521-119.213 106.718 0 10.288 1.465 20.224 4.186 29.628 5.961 20.597-1.032 42.966-17.098 57.166-38.668 34.177-62.61 84.582-61.3 140.545.774 32.693 10.179 63.25 26.024 89.476l39.928 10.533c-19.987-28.42-32.039-62.827-32.92-100.009.022.939-.008 1.866.028 2.808l-.096-4.979c.023.723.051 1.446.068 2.17-1.311-55.963 22.631-106.368 61.3-140.545 16.066-14.2 23.059-36.569 17.098-57.166-2.721-9.404-4.186-19.34-4.186-29.628.001-53.74 39.662-98.185 91.205-106.048z"/><path d="m218.911 115.613c-4.565 0-8.29-3.694-8.29-8.258s3.653-8.258 8.218-8.258h.073c4.565 0 8.258 3.694 8.258 8.258s-3.694 8.258-8.259 8.258z"/><path d="m293.161 115.613c-4.565 0-8.298-3.694-8.298-8.258s3.661-8.258 8.226-8.258h.073c4.565 0 8.258 3.694 8.258 8.258s-3.694 8.258-8.259 8.258z"/></g><path d="m239.817 127.069 10.455 13.94c2.864 3.818 8.592 3.818 11.455 0l10.455-13.94c3.54-4.72.172-11.455-5.728-11.455h-20.91c-5.899-.001-9.267 6.735-5.727 11.455z" fill="#ffa95f"/><path d="m256 511.458c5.604 0 11.149.288 16.624-.208 59.528-5.397 110.757-39.499 139.74-88.367-10.313-117.508-75.979-208.173-155.474-208.173h-.89c-65.747 0-122.02 61.99-145.352 149.908l-.148 59.049c31.822 52.624 79.515 87.791 145.5 87.791z" fill="#eceaec"/><path d="m256 512c5.571 0 11.18-.262 16.624-.753-81.199-7.323-147.023-67.883-161.976-146.629-4.997 18.765-8.423 38.768-10.188 59.551 31.773 52.762 89.454 87.831 155.54 87.831z" fill="#dad8db"/><path d="m156.903 470.71c-22.804 0-41.29 18.486-41.29 41.29h82.581c0-22.804-18.487-41.29-41.291-41.29z" fill="#ffa95f"/><path d="m355.097 470.71c-22.804 0-41.29 18.486-41.29 41.29h82.581c-.001-22.804-18.487-41.29-41.291-41.29z" fill="#ffa95f"/></svg>